<?xml version="1.0" encoding="utf-8"?>
<!-- Generator: Adobe Illustrator 26.0.3, SVG Export Plug-In . SVG Version: 6.00 Build 0)  -->
<svg version="1.0" id="katman_1" xmlns="http://www.w3.org/2000/svg" xmlns:xlink="http://www.w3.org/1999/xlink" x="0px" y="0px"
	 viewBox="0 0 201 139" style="enable-background:new 0 0 201 139;" xml:space="preserve">
<style type="text/css">
	.st0{fill:#75B82C;}
	.st1{fill:#3D90D5;}
</style>
<path class="st0" d="M18.2,60.2l7.1,13.6c0.5,0.9,1.7,1.7,2.7,1.7l14.5,0c1,0,1.4-0.8,0.9-1.7l-7.1-13.6c-0.5-0.9-1.7-1.7-2.7-1.7
	l-14.5,0c0,0,0,0-0.1,0C18.1,58.6,17.7,59.3,18.2,60.2z"/>
<path class="st0" d="M45.8,76.1l4.3,8c0.3,0.5,1,1,1.6,1l8.7-0.1c0.6,0,0.8-0.5,0.5-1l-4.3-8c-0.3-0.5-1-1-1.6-1L46.3,75
	c0,0,0,0,0,0C45.7,75.1,45.5,75.5,45.8,76.1z"/>
<path class="st1" d="M45.9,45.5l-8.7,11.1c-0.6,0.8-0.7,2.1-0.2,3l7.2,13.5c0.5,0.9,1.4,1.1,2,0.3l8.7-11.1c0.6-0.8,0.7-2.1,0.2-3
	l-7.2-13.5c-0.3-0.5-0.7-0.8-1.1-0.8C46.4,45,46.1,45.2,45.9,45.5z"/>
<path class="st1" d="M43.8,76.2l-5.2,6.6c-0.4,0.5-0.4,1.3-0.1,1.8l4.3,8c0.3,0.5,0.8,0.6,1.2,0.2l5.2-6.6c0.4-0.5,0.4-1.3,0.1-1.8
	l-4.3-8c-0.2-0.3-0.4-0.5-0.7-0.5C44.2,75.9,44,76,43.8,76.2z"/>
<path class="st1" d="M138.5,78.5h2.9V56.8h-2.9V78.5z"/>
<path class="st0" d="M86.7,63.7c-4.1,0-7.5,3.4-7.5,7.5h0V85h2.9V71.2h0c0-2.6,2.1-4.6,4.6-4.6c2.6,0,4.6,2.1,4.6,4.6
	c0,2.6-2.1,4.6-4.6,4.6c-1.4,0-2.7-0.7-3.6-1.7v3.7c1.1,0.6,2.3,0.9,3.6,0.9c4.1,0,7.5-3.4,7.5-7.5C94.2,67,90.8,63.7,86.7,63.7z"/>
<path class="st0" d="M103,63.7c-4.1,0-7.5,3.4-7.5,7.5h0V85h2.9V71.2h0c0-2.6,2.1-4.6,4.6-4.6c2.6,0,4.6,2.1,4.6,4.6
	c0,2.6-2.1,4.6-4.6,4.6c-1.4,0-2.7-0.7-3.6-1.7v3.7c1.1,0.6,2.3,0.9,3.6,0.9c4.1,0,7.5-3.4,7.5-7.5C110.5,67,107.1,63.7,103,63.7z"
	/>
<path class="st0" d="M69.9,56.8c-4.1,0-7.5,3.4-7.5,7.5v14.3h2.9V64.3h0c0-2.5,2.1-4.6,4.6-4.6c2.5,0,4.6,2.1,4.6,4.6h0v1.6h-7.4
	v2.9h7.4v9.7h2.9V64.3C77.4,60.1,74.1,56.8,69.9,56.8"/>
<path class="st1" d="M128.8,64.3c0-2.5,2.1-4.6,4.6-4.6v0h3.6v-2.9h-3.6c-4.1,0-7.5,3.4-7.5,7.5v14.3h2.9v-9.4h8v-2.9h-8V64.3z"/>
<path class="st1" d="M153.5,63.8v9.1h0c0,1.8-1.5,3.3-3.4,3.3c-1.8,0-3.3-1.5-3.4-3.3h0v-9.1h-2.9v9.1h0c0,2.9,2.1,5.4,4.8,6V85h2.9
	v-6.2c2.7-0.6,4.8-3.1,4.8-6h0v-9.1H153.5"/>
<path class="st1" d="M169.7,72.3c-0.3,1.2-1,2.2-2.2,2.9c-2.2,1.3-5,0.5-6.3-1.7c-1.3-2.2-0.5-5,1.7-6.3c1.8-1,3.9-0.7,5.4,0.6
	l-6.5,3.7l1.4,2.5l3-1.7l6.1-3.5c-0.2-0.5-0.4-0.9-0.6-1.3c-2.1-3.6-6.7-4.8-10.3-2.7c-3.6,2.1-4.8,6.7-2.7,10.3
	c2.1,3.6,6.7,4.8,10.3,2.7c2.1-1.2,3.3-3.2,3.7-5.4H169.7"/>
<path class="st1" d="M181.7,63.7c-1.7,0-3.3,0.6-4.6,1.6v-1.5h-2.9v14.8h2.9v-7.4h0c0-2.5,2.1-4.6,4.6-4.6v0h0.6v-2.9H181.7"/>
<path class="st0" d="M121.4,71.7l-7.2-3.4l0,0c-0.3-0.2-0.5-0.6-0.3-0.9c0.1-0.3,0.4-0.4,0.6-0.4v0h8.2v-2.9h-8.2v0
	c-1.4,0-2.7,0.8-3.3,2.1c-0.8,1.8-0.1,3.9,1.7,4.8l7.2,3.4l0,0c0,0,0,0,0,0c0.4,0.2,0.5,0.6,0.3,0.9c-0.1,0.3-0.4,0.4-0.6,0.4v0
	h-8.4v2.9h8.4v0c1.4,0,2.7-0.8,3.3-2.1C124,74.7,123.3,72.5,121.4,71.7"/>
</svg>
